#!OML:ASF E:\pregnant2\Project 1\Capture day 1\Session 1\pregnant2.ASF
:FULLY-SPECIFIED
:DEGREES
1779
root 5.65021 19.9702 -0.797476 -332.74 -5.46096 -1.971
lowerback -12.7584 0.272589 0.842956
upperback -13.2836 0.267092 0.440742
thorax -6.98518 0.0655237 0.0156472
lowerneck -12.1111 0.0602586 -1.60946
upperneck 49.5211 2.3548 -3.52237
head 23.2875 0.0517923 -1.19279
rclavicle -5.92627e-015 3.27995e-015
rhumerus -58.6421 2.00976 -72.7779
rradius 39.4399
rwrist 6.48779
rhand -12.2919 -10.3178
rfingers 7.12502
rthumb 13.7757 -39.8418
lclavicle -5.92627e-015 3.27995e-015
lhumerus -54.4453 2.26095 79.335
lradius 47.6141
lwrist -0.187493
lhand -7.01835 24.6783
lfingers 7.12502
lthumb 18.8532 53.7846
rfemur -53.0671 -3.31306 26.3688
rtibia 90.0043
rfoot -25.4288 -6.74451
rtoes -18.6124
lfemur -43.4543 -2.63406 -26.2181
ltibia 27.9095
lfoot -6.15908 18.2392
ltoes -8.06672
1780
root 5.66568 19.8887 -0.710245 -332.786 -5.28167 -1.44095
lowerback -12.6661 0.0989848 0.228949
upperback -13.3187 0.0794962 0.365503
thorax -7.0758 0.0188523 0.266864
lowerneck -12.19 0.0219619 -1.65201
upperneck 49.4083 2.2659 -3.44299
head 23.1995 0.0212842 -1.15299
rclavicle 1.68718e-014 -3.97569e-016
rhumerus -58.7328 1.80332 -72.679
rradius 39.2348
rwrist 6.48452
rhand -12.5304 -10.169
rfingers 7.12502
rthumb 13.5458 -39.7084
lclavicle 1.68718e-014 -3.97569e-016
lhumerus -54.1884 2.05632 79.3828
lradius 47.7733
lwrist -0.370978
lhand -6.99986 24.5747
lfingers 7.12502
lthumb 18.871 53.6794
rfemur -54.5698 -4.03399 25.7073
rtibia 92.6114
rfoot -22.5087 -5.43808
rtoes -17.0292
lfemur -43.5017 -2.41119 -27.1343
ltibia 28.4122
lfoot -6.93632 17.4619
ltoes -8.5956
1781
root 5.67827 19.7981 -0.625508 -332.769 -5.10026 -0.981199
lowerback -12.6022 -0.0593384 -0.340607
upperback -13.4098 -0.0924162 0.303453
thorax -7.21342 -0.0221842 0.508871
lowerneck -12.1854 -0.0113617 -1.64509
upperneck 49.3464 2.1759 -3.3848
head 23.1294 -0.00214313 -1.13727
rclavicle -1.07841e-014 -4.37326e-015
rhumerus -58.9895 1.62109 -72.5911
rradius 39.1725
rwrist 6.60005
rhand -12.5297 -10.1632
rfingers 7.12502
rthumb 13.5465 -39.7025
lclavicle -1.07841e-014 -4.37326e-015
lhumerus -53.9061 1.81413 79.4234
lradius 47.7832
lwrist -0.662265
lhand -7.15555 24.6017
lfingers 7.12502
lthumb 18.7212 53.7208
rfemur -56.1719 -4.64316 25.0892
rtibia 95.1255
rfoot -19.4576 -4.1751
rtoes -15.6308
lfemur -43.5688 -2.0669 -28.083
ltibia 29.0492
lfoot -8.19443 16.8614
ltoes -8.28854
1782
root 5.68947 19.7115 -0.541639 -332.74 -4.8957 -0.598437
lowerback -12.5652 -0.196093 -0.876119
upperback -13.4443 -0.237207 0.268994
thorax -7.27126 -0.050166 0.762803
lowerneck -12.2631 -0.0741636 -1.66949
upperneck 49.2567 2.057 -3.33592
head 23.0663 -0.0433283 -1.12614
rclavicle 3.23646e-015 -4.96962e-016
rhumerus -59.1419 1.36129 -72.4509
rradius 39.0561
rwrist 6.68492
rhand -12.5341 -10.2588
rfingers 7.12502
rthumb 13.5422 -39.7984
lclavicle 3.23646e-015 -4.96962e-016
lhumerus -53.4866 1.60246 79.4546
lradius 47.8507
lwrist -0.805812
lhand -7.13896 24.9011
lfingers 7.12502
lthumb 18.7372 54.0187
rfemur -57.7293 -5.13079 24.5112
rtibia 97.4671
rfoot -16.1682 -2.99151
rtoes -13.2137
lfemur -43.7472 -1.58942 -29.034
ltibia 29.8322
lfoot -9.38522 16.3701
ltoes -8.14068
1783
root 5.70154 19.6331 -0.461562 -332.634 -4.69473 -0.276901
lowerback -12.5656 -0.298494 -1.27779
upperback -13.4562 -0.34544 0.233549
thorax -7.28267 -0.0713 0.943001
lowerneck -12.4057 -0.132471 -1.79279
upperneck 49.1277 1.95432 -3.22235
head 22.9895 -0.0899824 -1.05438
rclavicle 5.40446e-015 1.36167e-014
rhumerus -59.1987 1.1112 -72.3585
rradius 38.9135
rwrist 6.6695
rhand -12.5837 -10.3067
rfingers 7.12502
rthumb 13.4945 -39.8495
lclavicle 5.40446e-015 1.36167e-014
lhumerus -52.9329 1.44172 79.4592
lradius 47.8624
lwrist -1.22385
lhand -7.31004 24.5602
lfingers 7.12502
lthumb 18.5726 53.6936
rfemur -59.3325 -5.51689 23.9789
rtibia 99.6463
rfoot -12.8587 -2.01694
rtoes -10.6476
lfemur -44.0856 -1.02393 -29.9918
ltibia 30.7505
lfoot -10.7755 15.9766
ltoes -7.01475
1784
root 5.71606 19.5703 -0.381035 -332.479 -4.50865 -0.0693351
lowerback -12.6124 -0.368909 -1.60998
upperback -13.5429 -0.413985 0.244413
thorax -7.35454 -0.0748673 1.13601
lowerneck -12.3536 -0.196389 -1.82839
upperneck 49.057 1.8632 -3.23071
head 22.8968 -0.128761 -1.06693
rclavicle -1.63128e-014 -1.2921e-015
rhumerus -59.4662 0.927268 -72.2605
rradius 38.8911
rwrist 6.68733
rhand -12.6305 -10.4901
rfingers 7.12502
rthumb 13.4494 -40.0359
lclavicle -1.63128e-014 -1.2921e-015
lhumerus -52.6156 1.26526 79.5076
lradius 48.0683
lwrist -1.41075
lhand -7.48512 24.7451
lfingers 7.12502
lthumb 18.4042 53.8945
rfemur -60.8772 -5.78241 23.5428
rtibia 101.617
rfoot -9.76058 -1.23473
rtoes -8.63995
lfemur -44.5574 -0.41799 -30.8276
ltibia 31.7449
lfoot -11.9256 15.5955
ltoes -5.68462
1785
root 5.72928 19.5141 -0.306423 -332.286 -4.32511 0.0924003
lowerback -12.6412 -0.426219 -1.88048
upperback -13.6303 -0.469623 0.257535
thorax -7.43719 -0.0766048 1.29785
lowerneck -12.217 -0.24881 -1.91208
upperneck 48.938 1.78758 -3.20514
head 22.7232 -0.16624 -1.04447
rclavicle -1.48467e-015 -1.60022e-014
rhumerus -59.6513 0.703146 -72.1696
rradius 38.7509
rwrist 6.75033
rhand -12.6071 -10.6052
rfingers 7.12502
rthumb 13.4719 -40.1495
lclavicle -1.48467e-015 -1.60022e-014
lhumerus -52.2275 1.10677 79.547
lradius 48.2716
lwrist -1.5291
lhand -7.78537 24.7061
lfingers 7.12502
lthumb 18.1153 53.8825
rfemur -62.4411 -5.9615 23.191
rtibia 103.478
rfoot -6.80559 -0.559039
rtoes -6.24692
lfemur -45.1462 -0.144804 -31.3715
ltibia 32.8756
lfoot -12.6576 15.4111
ltoes -5.47209
1786
root 5.73723 19.4723 -0.225082 -332.309 -3.98019 0.3281
lowerback -12.5516 -0.551693 -2.24019
upperback -13.5828 -0.609379 0.283254
thorax -7.42687 -0.113522 1.51799
lowerneck -12.3121 -0.302141 -1.94905
upperneck 48.9025 1.75101 -3.26392
head 22.7295 -0.192002 -1.07605
rclavicle 1.18401e-014 1.20762e-014
rhumerus -59.6946 0.479997 -72.1263
rradius 38.5381
rwrist 6.729
rhand -12.7369 -10.4996
rfingers 7.12502
rthumb 13.3468 -40.0521
lclavicle 1.18401e-014 1.20762e-014
lhumerus -51.7225 0.983372 79.6071
lradius 48.4974
lwrist -1.56603
lhand -8.07457 25.0582
lfingers 7.12502
lthumb 17.8371 54.2602
rfemur -63.5934 -6.29077 22.8697
rtibia 105.164
rfoot -4.12819 -0.149336
rtoes -4.55216
lfemur -45.4085 -0.185542 -31.7159
ltibia 34.0479
lfoot -13.2755 15.2404
ltoes -6.07246
1787
root 5.74335 19.4212 -0.151515 -332.154 -3.73966 0.551663
lowerback -12.5173 -0.653157 -2.637
upperback -13.6385 -0.715895 0.309807
thorax -7.50486 -0.128598 1.76215
lowerneck -12.2424 -0.371272 -2.07808
upperneck 48.8759 1.67212 -3.24004
head 22.6729 -0.240987 -1.05137
rclavicle -5.24916e-016 1.16041e-014
rhumerus -59.7473 0.267239 -72.0926
rradius 38.191
rwrist 6.82525
rhand -12.8803 -10.6686
rfingers 7.12502
rthumb 13.2086 -40.2302
lclavicle -5.24916e-016 1.16041e-014
lhumerus -51.1189 1.03314 79.5252
lradius 48.3528
lwrist -1.74217
lhand -8.42526 24.4343
lfingers 7.12502
lthumb 17.4996 53.6667
rfemur -65.0439 -6.49065 22.5863
rtibia 106.862
rfoot -1.57066 0.127994
rtoes -3.171
lfemur -45.9123 -0.0934738 -32.1154
ltibia 35.2273
lfoot -13.6548 14.8927
ltoes -7.65271
1788
root 5.74714 19.3698 -0.0798391 -331.994 -3.54183 0.739953
lowerback -12.5647 -0.73976 -3.01425
upperback -13.6724 -0.800898 0.347157
thorax -7.51382 -0.134887 2.0073
lowerneck -12.1187 -0.426884 -2.18848
upperneck 48.8851 1.63116 -3.26273
head 22.6318 -0.277797 -1.04918
rclavicle -7.60973e-016 1.1281e-014
rhumerus -59.7368 0.0716975 -72.0795
rradius 37.7599
rwrist 6.93877
rhand -12.8574 -10.7046
rfingers 7.12502
rthumb 13.2306 -40.2647
lclavicle -7.60973e-016 1.1281e-014
lhumerus -50.6759 0.937705 79.5793
lradius 48.4915
lwrist -1.54725
lhand -9.08319 24.2288
lfingers 7.12502
lthumb 16.8664 53.5164
rfemur -66.5435 -6.58903 22.3797
rtibia 108.452
rfoot 0.852031 0.188904
rtoes -1.69569
lfemur -46.3729 0.216179 -32.5645
ltibia 36.2995
lfoot -14.0673 14.3539
ltoes -9.04343
1789
root 5.75227 19.3251 -0.00766488 -331.893 -3.33702 0.869967
lowerback -12.5657 -0.799743 -3.25609
upperback -13.6265 -0.859863 0.376654
thorax -7.45749 -0.14233 2.16981
lowerneck -12.2212 -0.447116 -2.24937
upperneck 48.9127 1.64538 -3.28507
head 22.701 -0.285295 -1.04801
rclavicle -5.31283e-015 -8.08805e-015
rhumerus -59.591 -0.0781417 -72.1697
rradius 37.3253
rwrist 7.07134
rhand -12.8168 -10.9969
rfingers 7.12502
rthumb 13.2698 -40.5545
lclavicle -5.31283e-015 -8.08805e-015
lhumerus -50.231 0.821515 79.6611
lradius 48.8805
lwrist -1.57494
lhand -9.56283 24.9802
lfingers 7.12502
lthumb 16.4046 54.3065
rfemur -67.8653 -6.63614 22.2655
rtibia 109.862
rfoot 2.93923 0.0718549
rtoes -0.260159
lfemur -46.7316 0.684672 -33.0296
ltibia 37.2582
lfoot -14.4379 13.7806
ltoes -10.5524
1790
root 5.75854 19.2885 0.0671604 -331.869 -3.16137 0.908991
lowerback -12.5194 -0.822255 -3.40163
upperback -13.5648 -0.876327 0.42166
thorax -7.41123 -0.136082 2.29796
lowerneck -12.1419 -0.53864 -2.51342
upperneck 48.8628 1.54355 -3.19367
head 22.6165 -0.360946 -0.963132
rclavicle -2.30349e-015 -4.14963e-015
rhumerus -59.5086 -0.140602 -72.3136
rradius 36.9448
rwrist 7.19352
rhand -12.7716 -11.103
rfingers 7.12502
rthumb 13.3134 -40.6577
lclavicle -2.30349e-015 -4.14963e-015
lhumerus -49.7045 0.878776 79.6537
lradius 49.1152
lwrist -1.62528
lhand -9.95823 25.3296
lfingers 7.12502
lthumb 16.0239 54.6869
rfemur -69.0087 -6.57638 22.2671
rtibia 111.06
rfoot 4.50349 -0.324079
rtoes 0.552291
lfemur -46.8775 1.21526 -33.4006
ltibia 37.9925
lfoot -14.8576 13.2733
ltoes -11.5542
1791
root 5.76749 19.2675 0.14653 -331.952 -2.94168 0.863431
lowerback -12.4595 -0.82685 -3.40374
upperback -13.4427 -0.877876 0.469626
thorax -7.30381 -0.136605 2.34956
lowerneck -12.1868 -0.554 -2.51455
upperneck 48.907 1.57014 -3.27313
head 22.6806 -0.358985 -1.00288
rclavicle -4.48974e-015 1.26663e-014
rhumerus -59.4119 -0.169318 -72.5014
rradius 36.7058
rwrist 7.23341
rhand -12.4039 -11.3004
rfingers 7.12502
rthumb 13.6678 -40.8316
lclavicle -4.48974e-015 1.26663e-014
lhumerus -49.1824 0.910378 79.6338
lradius 49.3124
lwrist -1.59862
lhand -10.489 25.1826
lfingers 7.12502
lthumb 15.5127 54.5803
rfemur -69.8263 -6.50417 22.396
rtibia 111.996
rfoot 5.09969 -1.31263
rtoes -0.234594
lfemur -46.7738 1.59234 -33.5694
ltibia 38.5089
lfoot -15.217 12.9954
ltoes -12.1391
1792
root 5.77913 19.2571 0.227059 -332.129 -2.74192 0.758758
lowerback -12.2964 -0.800387 -3.25885
upperback -13.2962 -0.852559 0.502401
thorax -7.22699 -0.136865 2.30532
lowerneck -12.2656 -0.566052 -2.55226
upperneck 48.9581 1.58994 -3.29754
head 22.7631 -0.360741 -1.00733
rclavicle 8.19599e-015 -8.10048e-015
rhumerus -59.2238 -0.146939 -72.8055
rradius 36.0963
rwrist 8.00307
rhand -12.7366 -10.8476
rfingers 7.12502
rthumb 13.3471 -40.4001
lclavicle 8.19599e-015 -8.10048e-015
lhumerus -48.7279 0.876875 79.646
lradius 49.5669
lwrist -1.57414
lhand -11.2662 25.1361
lfingers 7.12502
lthumb 14.764 54.5902
rfemur -70.4453 -6.45423 22.6205
rtibia 112.757
rfoot 4.93742 -2.19906
rtoes 0.0675104
lfemur -46.4219 1.84195 -33.5838
ltibia 38.8187
lfoot -15.6298 12.9326
ltoes -12.6359
